<svg preserveAspectRatio="none" overflow="visible" style="display: block;" width="100" height="176.712" viewBox="0 0 100 176.712" fill="none" xmlns="http://www.w3.org/2000/svg">
<g id="Group 1410084942">
<path id="Ellipse 6117" d="M50 47.7585C63.7582 47.7585 76.1907 50.0509 85.165 53.7389C89.6534 55.5835 93.2533 57.7674 95.7227 60.1667C98.1904 62.5644 99.5 65.146 99.5 67.8063C99.5 70.4666 98.1904 73.0482 95.7227 75.446C93.2533 77.8452 89.6534 80.0292 85.165 81.8737C76.1907 85.5617 63.7582 87.8542 50 87.8542C36.2418 87.8542 23.8093 85.5617 14.835 81.8737C10.3466 80.0292 6.74671 77.8452 4.27735 75.446C1.80964 73.0482 0.500002 70.4666 0.500002 67.8063C0.500032 65.146 1.80961 62.5644 4.27735 60.1667C6.74671 57.7674 10.3466 55.5835 14.835 53.7389C23.8093 50.0509 36.2418 47.7585 50 47.7585Z" stroke="#5A89A9"/>
<path id="Ellipse 6130" d="M50 23.1033C63.7236 23.1033 76.1254 26.7615 85.0811 32.6502C94.0407 38.5415 99.5 46.6241 99.5 55.4802C99.4999 64.3362 94.0405 72.4181 85.0811 78.3094C76.1254 84.198 63.7236 87.8572 50 87.8572C36.2765 87.8572 23.8746 84.198 14.9189 78.3094C5.95947 72.4181 0.500101 64.3362 0.500003 55.4803C0.500003 46.6241 5.95926 38.5415 14.9189 32.6502C23.8746 26.7615 36.2765 23.1033 50 23.1033Z" stroke="#5A89A9"/>
<path id="Ellipse 6132" d="M50 0.500007C77.3979 0.500006 99.4998 20.1115 99.5 44.1777C99.5 68.2441 77.3981 87.8565 50 87.8565C22.6019 87.8565 0.50001 68.2441 0.50001 44.1777C0.500219 20.1115 22.6021 0.500009 50 0.500007Z" stroke="#5A89A9"/>
<path id="Ellipse 6128" d="M50 72.4153C63.7886 72.4153 76.2604 73.334 85.2744 74.8157C89.7854 75.5573 93.407 76.4368 95.8896 77.4017C97.1333 77.885 98.0621 78.3785 98.6709 78.8675C99.2866 79.3621 99.4998 79.7881 99.5 80.1341C99.5 80.4802 99.2867 80.906 98.6709 81.4007C98.0621 81.8898 97.1335 82.3841 95.8897 82.8675C93.407 83.8324 89.7854 84.7119 85.2744 85.4534C76.2604 86.9352 63.7886 87.8538 50 87.8538C36.2114 87.8538 23.7396 86.9352 14.7256 85.4534C10.2146 84.7119 6.59297 83.8324 4.11035 82.8675C2.86652 82.3841 1.93795 81.8898 1.3291 81.4007C0.71331 80.906 0.500002 80.4802 0.500002 80.1341C0.500177 79.7881 0.713452 79.3621 1.3291 78.8675C1.93795 78.3785 2.86673 77.885 4.11035 77.4017C6.59297 76.4368 10.2146 75.5573 14.7256 74.8157C23.7396 73.334 36.2114 72.4153 50 72.4153Z" stroke="#5A89A9"/>
<path id="Ellipse 6127" d="M50 88.8544C63.7582 88.8544 76.1907 91.1469 85.165 94.8349C89.6534 96.6794 93.2533 98.8633 95.7227 101.263C98.1904 103.66 99.5 106.242 99.5 108.902C99.5 111.563 98.1904 114.144 95.7227 116.542C93.2533 118.941 89.6534 121.125 85.165 122.97C76.1907 126.658 63.7582 128.95 50 128.95C36.2418 128.95 23.8093 126.658 14.835 122.97C10.3466 121.125 6.74671 118.941 4.27734 116.542C1.80964 114.144 0.5 111.563 0.5 108.902C0.500032 106.242 1.80961 103.66 4.27734 101.263C6.74671 98.8633 10.3466 96.6794 14.835 94.8349C23.8093 91.1469 36.2418 88.8544 50 88.8544Z" stroke="#5A89A9"/>
<path id="Ellipse 6131" d="M50 88.8561C63.7235 88.8561 76.1254 92.5144 85.0811 98.403C94.0407 104.294 99.5 112.377 99.5 121.233C99.4999 130.089 94.0405 138.171 85.0811 144.062C76.1254 149.951 63.7235 153.61 50 153.61C36.2765 153.61 23.8746 149.951 14.9189 144.062C5.95947 138.171 0.5001 130.089 0.5 121.233C0.5 112.377 5.95926 104.294 14.9189 98.403C23.8746 92.5144 36.2765 88.8561 50 88.8561Z" stroke="#5A89A9"/>
<path id="Ellipse 6133" d="M50 88.8561C77.3979 88.8561 99.4998 108.468 99.5 132.534C99.5 156.6 77.3981 176.213 50 176.213C22.6019 176.213 0.5 156.6 0.5 132.534C0.500208 108.468 22.6021 88.8561 50 88.8561Z" stroke="#5A89A9"/>
<path id="Ellipse 6129" d="M50 88.8544C63.7886 88.8544 76.2604 89.7731 85.2744 91.2548C89.7854 91.9963 93.407 92.8759 95.8896 93.8408C97.1333 94.3241 98.0621 94.8175 98.6709 95.3066C99.2866 95.8011 99.4998 96.2272 99.5 96.5732C99.5 96.9192 99.2867 97.3451 98.6709 97.8398C98.0621 98.3289 97.1335 98.8232 95.8896 99.3066C93.407 100.271 89.7854 101.151 85.2744 101.893C76.2604 103.374 63.7886 104.293 50 104.293C36.2114 104.293 23.7396 103.374 14.7256 101.893C10.2146 101.151 6.59297 100.271 4.11035 99.3066C2.86652 98.8232 1.93795 98.3289 1.3291 97.8398C0.713309 97.3451 0.500001 96.9192 0.500001 96.5732C0.500176 96.2272 0.713451 95.8011 1.3291 95.3066C1.93795 94.8175 2.86673 94.3241 4.11035 93.8408C6.59297 92.8759 10.2146 91.9963 14.7256 91.2548C23.7396 89.7731 36.2114 88.8544 50 88.8544Z" stroke="#5A89A9"/>
</g>
</svg>
